<svg width="72" height="72" viewBox="0 0 72 72" fill="none" xmlns="http://www.w3.org/2000/svg">
<g clip-path="url(#clip0)">
<path d="M59.8685 47.5708L48.6394 42.3208C48.1597 42.0978 47.6265 42.0508 47.1202 42.1869C46.6139 42.323 46.1619 42.6349 45.8321 43.0755L40.8592 49.7036C33.0546 45.6894 26.7738 38.8375 23.094 30.3235L29.1698 24.8985C29.5745 24.5394 29.861 24.0462 29.9858 23.4937C30.1106 22.9411 30.067 22.3592 29.8616 21.836L25.0491 9.58604C24.8236 9.02211 24.4248 8.56168 23.9215 8.28415C23.4182 8.00661 22.8419 7.92937 22.2919 8.06573L11.8648 10.6907C11.3346 10.8243 10.8616 11.15 10.5229 11.6146C10.1842 12.0792 9.99988 12.6554 10 13.249C10 41.3037 30.8441 63.9989 56.5208 63.9989C57.0652 63.9993 57.5935 63.7984 58.0196 63.4289C58.4458 63.0594 58.7444 62.5432 58.8669 61.9646L61.2732 50.5896C61.3974 49.9867 61.3251 49.3555 61.0687 48.8045C60.8123 48.2536 60.3879 47.8173 59.8685 47.5708V47.5708Z" fill="#444358"/>
</g>
<defs>
<clipPath id="clip0">
<rect width="51.3333" height="56" fill="white" transform="translate(10 8)"/>
</clipPath>
</defs>
</svg>
