<svg width="32" height="32" viewBox="0 0 32 32" fill="none" xmlns="http://www.w3.org/2000/svg">
<path d="M22.7567 13.1336L16.3372 15.3722L16.3372 15.3722L16.2878 15.2306C16.1947 15.2631 16.0973 15.2793 16 15.2793C15.9026 15.2793 15.8052 15.2631 15.7121 15.2306L22.7567 13.1336ZM22.7567 13.1336V17.6282C22.5625 17.7893 21.9905 18.1373 20.7812 18.4757C19.3764 18.8688 17.6778 19.0862 16 19.0862C14.3222 19.0862 12.6237 18.8688 11.2188 18.4757C10.0092 18.1372 9.43722 17.7892 9.24316 17.6281V13.1336L15.6627 15.3722M22.7567 13.1336L15.6627 15.3722M15.6627 15.3722C15.6627 15.3722 15.6627 15.3722 15.6627 15.3722L15.6627 15.3722ZM1.8555 10.5574L7.22446 12.4296V17.8219C7.22446 18.3362 7.50014 18.7941 8.00165 19.1929C8.5013 19.5902 9.23806 19.9403 10.1977 20.2459C11.874 20.7796 13.9342 21.0721 16.0001 21.0721C18.0659 21.0721 20.1261 20.7796 21.8024 20.2459C22.7621 19.9403 23.4988 19.5902 23.9985 19.1929C24.5 18.7941 24.7757 18.3363 24.7757 17.8219V12.4297L26.7339 11.7468V19.0506C25.7255 19.4452 25.008 20.4134 25.008 21.5464C25.008 22.6794 25.7255 23.6477 26.7339 24.0423V27.157C26.7339 27.7081 27.1886 28.15 27.7433 28.15C28.298 28.15 28.7527 27.7081 28.7527 27.157V24.0423C29.7611 23.6477 30.4786 22.6795 30.4786 21.5464C30.4786 20.4135 29.7611 19.4452 28.7527 19.0506V11.0427L30.1445 10.5574C30.5464 10.4173 30.8171 10.0428 30.8167 9.62033C30.8161 9.19787 30.5445 8.82404 30.1423 8.68484L30.0932 8.82659L30.1423 8.68484L16.335 3.90631C16.1182 3.83123 15.8818 3.83123 15.665 3.90631L1.8578 8.68483C1.85779 8.68484 1.85778 8.68484 1.85778 8.68484C1.45554 8.82399 1.18389 9.19789 1.18334 9.6203C1.1828 10.0428 1.45361 10.4173 1.85549 10.5574C1.8555 10.5574 1.8555 10.5574 1.8555 10.5574ZM27.7433 22.2464C27.3455 22.2464 27.0267 21.9295 27.0267 21.5464C27.0267 21.1632 27.3455 20.8464 27.7433 20.8464C28.141 20.8464 28.4598 21.1632 28.4598 21.5464C28.4598 21.9295 28.141 22.2464 27.7433 22.2464ZM16 13.3828L5.22398 9.62502L16 5.89557L26.776 9.62508L16 13.3828Z" fill="#8C88FF" stroke="#8C88FF" stroke-width="0.3"/>
</svg>
