<svg width="32" height="32" viewBox="0 0 32 32" fill="none" xmlns="http://www.w3.org/2000/svg">
<path fill-rule="evenodd" clip-rule="evenodd" d="M6.40001 12C5.74885 12 5.33334 12.487 5.33334 12.9524V24.381C5.33334 24.8464 5.74885 25.3334 6.40001 25.3334H25.6C26.2512 25.3334 26.6667 24.8464 26.6667 24.381V12.9524C26.6667 12.487 26.2512 12 25.6 12H6.40001ZM2.66667 12.9524C2.66667 10.8931 4.40019 9.33337 6.40001 9.33337H25.6C27.5998 9.33337 29.3333 10.8931 29.3333 12.9524V24.381C29.3333 26.4403 27.5998 28 25.6 28H6.40001C4.40019 28 2.66667 26.4403 2.66667 24.381V12.9524Z" fill="#8C88FF"/>
<path fill-rule="evenodd" clip-rule="evenodd" d="M10.5619 5.03105C11.3208 4.35645 12.3198 4 13.3333 4H18.6667C19.6801 4 20.6792 4.35645 21.4381 5.03105C22.2021 5.71021 22.6667 6.66734 22.6667 7.7037V26.6667C22.6667 27.403 22.0697 28 21.3333 28C20.5969 28 20 27.403 20 26.6667V7.7037C20 7.48274 19.9026 7.23405 19.6665 7.02414C19.4252 6.80969 19.0677 6.66667 18.6667 6.66667H13.3333C12.9323 6.66667 12.5748 6.80969 12.3335 7.02414C12.0974 7.23405 12 7.48274 12 7.7037V26.6667C12 27.403 11.403 28 10.6667 28C9.93028 28 9.33333 27.403 9.33333 26.6667V7.7037C9.33333 6.66734 9.79785 5.71021 10.5619 5.03105Z" fill="#8C88FF"/>
</svg>
