<svg width="25" height="25" viewBox="0 0 25 25" fill="none" xmlns="http://www.w3.org/2000/svg">
<path d="M14.9316 2.27869H6.93164C6.40121 2.27869 5.8925 2.4894 5.51743 2.86447C5.14235 3.23955 4.93164 3.74825 4.93164 4.27869V20.2787C4.93164 20.8091 5.14235 21.3178 5.51743 21.6929C5.8925 22.068 6.40121 22.2787 6.93164 22.2787H18.9316C19.4621 22.2787 19.9708 22.068 20.3459 21.6929C20.7209 21.3178 20.9316 20.8091 20.9316 20.2787V8.27869L14.9316 2.27869Z" stroke="#444358" stroke-width="2" stroke-linecap="round" stroke-linejoin="round"/>
<path d="M14.9316 2.27869V8.27869H20.9316" stroke="#444358" stroke-width="2" stroke-linecap="round" stroke-linejoin="round"/>
<path d="M16.9316 13.2787H8.93164" stroke="#444358" stroke-width="2" stroke-linecap="round" stroke-linejoin="round"/>
<path d="M16.9316 17.2787H8.93164" stroke="#444358" stroke-width="2" stroke-linecap="round" stroke-linejoin="round"/>
<path d="M10.9316 9.27869H9.93164H8.93164" stroke="#444358" stroke-width="2" stroke-linecap="round" stroke-linejoin="round"/>
</svg>
