<svg width="32" height="32" viewBox="0 0 32 32" fill="none" xmlns="http://www.w3.org/2000/svg">
<path d="M17.7083 15.761C17.7083 19.9431 14.3411 23.3333 10.1876 23.3333C6.03415 23.3333 2.66667 19.9423 2.66667 15.761C2.66667 11.5797 6.03389 8.18848 10.1876 8.18848C14.3413 8.18848 17.7083 11.5789 17.7083 15.761ZM25.9587 15.761C25.9587 19.6975 24.2751 22.89 22.1982 22.89C20.1214 22.89 18.4378 19.6975 18.4378 15.761C18.4378 11.8245 20.1211 8.63206 22.198 8.63206C24.2748 8.63206 25.9587 11.8235 25.9587 15.761ZM29.3333 15.761C29.3333 19.2872 28.7413 22.1474 28.0108 22.1474C27.2802 22.1474 26.6885 19.2879 26.6885 15.761C26.6885 12.2341 27.2805 9.37459 28.0108 9.37459C28.741 9.37459 29.3333 12.2338 29.3333 15.761Z" fill="#444358"/>
</svg>
